<svg width="18" height="19" viewBox="0 0 18 19" fill="none" xmlns="http://www.w3.org/2000/svg" class="text-white group-hover:text-[#fff] w-[18px] h-auto inline"><path d="M7.48633 2.11719C7.0957 2.50781 7.13477 3.09375 7.48633 3.48438L12.2129 7.9375H1.00195C0.455078 7.9375 0.0644531 8.36719 0.0644531 8.875V10.125C0.0644531 10.6719 0.455078 11.0625 1.00195 11.0625H12.2129L7.48633 15.5547C7.13477 15.9453 7.13477 16.5312 7.48633 16.9219L8.3457 17.7812C8.73633 18.1328 9.32227 18.1328 9.67383 17.7812L17.291 10.1641C17.6426 9.8125 17.6426 9.22656 17.291 8.83594L9.67383 1.25781C9.32227 0.90625 8.73633 0.90625 8.3457 1.25781L7.48633 2.11719Z" fill="#fff"></path></svg>