<svg
width="29"
height="29"
viewBox="0 0 29 29"
fill="none"
xmlns="http://www.w3.org/2000/svg"
>
<path
  fill-rule="evenodd"
  clip-rule="evenodd"
  d="M0 14.5C0 10.6544 1.52767 6.96623 4.24695 4.24695C6.96623 1.52767 10.6544 0 14.5 0C18.3456 0 22.0338 1.52767 24.753 4.24695C27.4723 6.96623 29 10.6544 29 14.5C29 18.3456 27.4723 22.0338 24.753 24.753C22.0338 27.4723 18.3456 29 14.5 29C10.6544 29 6.96623 27.4723 4.24695 24.753C1.52767 22.0338 0 18.3456 0 14.5ZM13.6725 20.706L22.0207 10.2699L20.5127 9.06347L13.3941 17.9587L8.352 13.7576L7.11467 15.2424L13.6725 20.706Z"
  fill="#D4840B"
></path>
</svg>