<svg
height="19"
fill="none"
xmlns="http://www.w3.org/2000/svg"
width="118"
viewBox="0 0 118 19"
>
<path
  d="M8.09375 2.5625L6.0625 6.71875L1.46875 7.375C0.65625 7.5 0.34375 8.5 0.9375 9.09375L4.21875 12.3125L3.4375 16.8438C3.3125 17.6562 4.1875 18.2812 4.90625 17.9062L9 15.75L13.0625 17.9062C13.7812 18.2812 14.6562 17.6562 14.5312 16.8438L13.75 12.3125L17.0312 9.09375C17.625 8.5 17.3125 7.5 16.5 7.375L11.9375 6.71875L9.875 2.5625C9.53125 1.84375 8.46875 1.8125 8.09375 2.5625ZM30.1875 2.5625L28.1562 6.71875L23.5625 7.375C22.75 7.5 22.4375 8.5 23.0312 9.09375L26.3125 12.3125L25.5312 16.8438C25.4062 17.6562 26.2812 18.2812 27 17.9062L31.0938 15.75L35.1562 17.9062C35.875 18.2812 36.75 17.6562 36.625 16.8438L35.8438 12.3125L39.125 9.09375C39.7188 8.5 39.4062 7.5 38.5938 7.375L34.0312 6.71875L31.9688 2.5625C31.625 1.84375 30.5625 1.8125 30.1875 2.5625ZM54.4375 2.5625L52.4062 6.71875L47.8125 7.375C47 7.5 46.6875 8.5 47.2812 9.09375L50.5625 12.3125L49.7812 16.8438C49.6562 17.6562 50.5312 18.2812 51.25 17.9062L55.3438 15.75L59.4062 17.9062C60.125 18.2812 61 17.6562 60.875 16.8438L60.0938 12.3125L63.375 9.09375C63.9688 8.5 63.6562 7.5 62.8438 7.375L58.2812 6.71875L56.2188 2.5625C55.875 1.84375 54.8125 1.8125 54.4375 2.5625ZM78.6875 2.5625L76.6562 6.71875L72.0625 7.375C71.25 7.5 70.9375 8.5 71.5312 9.09375L74.8125 12.3125L74.0312 16.8438C73.9062 17.6562 74.7812 18.2812 75.5 17.9062L79.5938 15.75L83.6562 17.9062C84.375 18.2812 85.25 17.6562 85.125 16.8438L84.3438 12.3125L87.625 9.09375C88.2188 8.5 87.9062 7.5 87.0938 7.375L82.5312 6.71875L80.4688 2.5625C80.125 1.84375 79.0625 1.8125 78.6875 2.5625ZM102.938 2.5625L100.906 6.71875L96.3125 7.375C95.5 7.5 95.1875 8.5 95.7812 9.09375L99.0625 12.3125L98.2812 16.8438C98.1562 17.6562 99.0312 18.2812 99.75 17.9062L103.844 15.75L107.906 17.9062C108.625 18.2812 109.5 17.6562 109.375 16.8438L108.594 12.3125L111.875 9.09375C112.469 8.5 112.156 7.5 111.344 7.375L106.781 6.71875L104.719 2.5625C104.375 1.84375 103.312 1.8125 102.938 2.5625Z"
  fill="#FFC107"
></path>
</svg>